# xmcd
#
# Track frame offsets:
#	150
#	18260
#	32563
#	48846
#	68307
#	84763
#	102884
#	117190
#	133473
#	152934
#
# Disc length: 2258 seconds
#
# Revision: 1
# Processed by: cddbd v1.5.2PL0 Copyright (c) Steve Scherf et al.
# Submitted via: audiograbber 1.83.01
#
DISCID=7108d00a
DTITLE=Toby Keith and Kenny Chesney - Karaoke: Toby Keith and Kenny Chesney
DYEAR=1900
DGENRE=Karaoke
TTITLE0=I Love This Bar
TTITLE1=I Wanna Talk About Me
TTITLE2=No Shoes, No Shirt, No Problems
TTITLE3=There Goes My Life
TTITLE4=Who's Your Daddy
TTITLE5=I Love This Bar
TTITLE6=I Wanna Talk About Me
TTITLE7=No Shoes, No Shirt, No Problems
TTITLE8=There Goes My Life
TTITLE9=Who's Your Daddy
EXTD=
EXTT0=
EXTT1=
EXTT2=
EXTT3=
EXTT4=
EXTT5=
EXTT6=
EXTT7=
EXTT8=
EXTT9=
PLAYORDER=
